<!DOCTYPE svg PUBLIC "-//W3C//DTD SVG 1.1//EN" "http://www.w3.org/Graphics/SVG/1.1/DTD/svg11.dtd">
<!-- Uploaded to: SVG Repo, www.svgrepo.com, Transformed by: SVG Repo Mixer Tools -->
<svg fill="#ffffff" height="800px" width="800px" version="1.1" id="Layer_1" xmlns="http://www.w3.org/2000/svg" xmlns:xlink="http://www.w3.org/1999/xlink" viewBox="0 0 512 512" xml:space="preserve" stroke="#ffffff">
<g id="SVGRepo_bgCarrier" stroke-width="0"/>
<g id="SVGRepo_tracerCarrier" stroke-linecap="round" stroke-linejoin="round"/>
<g id="SVGRepo_iconCarrier"> <g> <g> <path d="M473.836,111.771V0H38.164v111.771h31.349v41.76c-7.484,8.386-12.043,19.435-12.043,31.533 c0,26.146,21.271,47.419,47.419,47.419c5.639,0,11.051-0.995,16.073-2.809V512h49.358h79.412h13.236h79.412h48.661V229.674 c5.022,1.815,10.432,2.809,16.073,2.809c26.146,0,47.419-21.272,47.419-47.419c0-12.098-4.56-23.147-12.043-31.533v-41.76H473.836 z M104.888,201.137c-8.862,0-16.072-7.21-16.072-16.072c0-8.862,7.209-16.072,16.072-16.072c8.862,0,16.073,7.21,16.073,16.072 C120.96,193.927,113.75,201.137,104.888,201.137z M218.384,480.653h-16.718V249.438c0-4.609,3.75-8.359,8.359-8.359 c4.609,0,8.359,3.75,8.359,8.359V480.653z M311.032,480.653h-16.718V249.438c0-4.609,3.75-8.359,8.359-8.359 c4.609,0,8.359,3.75,8.359,8.359V480.653z M359.694,480.653h-0.001h-17.314V249.438c0-21.894-17.812-39.706-39.706-39.706 c-21.894,0-39.706,17.812-39.706,39.706v231.215h-13.236V249.438c0-21.894-17.812-39.706-39.706-39.706 c-21.894,0-39.706,17.812-39.706,39.706v231.215h-18.011V168.992h207.386V480.653z M120.96,137.645H100.86v-25.875h310.279v25.875 H391.04H120.96z M407.112,201.137c-8.862,0-16.073-7.21-16.073-16.072c0-8.862,7.21-16.072,16.073-16.072 c8.862,0,16.072,7.21,16.072,16.072C423.184,193.927,415.975,201.137,407.112,201.137z M442.486,80.424H69.513h-0.002V31.347 h372.977v49.077H442.486z"/> </g> </g> </g>
</svg>